<svg width="12" height="7" viewBox="0 0 12 7" fill="none" xmlns="http://www.w3.org/2000/svg">
<path d="M11.4881 1.76897C11.8026 1.4994 11.839 1.02593 11.5694 0.711431C11.2999 0.396936 10.8264 0.360515 10.5119 0.630082L11.4881 1.76897ZM6 5.48524L5.51191 6.05468C5.79277 6.29542 6.20723 6.29542 6.48809 6.05468L6 5.48524ZM1.48809 0.630082C1.1736 0.360515 0.700124 0.396936 0.430558 0.71143C0.160991 1.02592 0.197412 1.4994 0.511906 1.76897L1.48809 0.630082ZM10.5119 0.630082L5.51191 4.9158L6.48809 6.05468L11.4881 1.76897L10.5119 0.630082ZM6.48809 4.9158L1.48809 0.630082L0.511906 1.76897L5.51191 6.05468L6.48809 4.9158Z" fill="#777777"/>
</svg>
