<svg width="24" height="24" viewBox="0 0 24 24" fill="none" xmlns="http://www.w3.org/2000/svg">
<path fill-rule="evenodd" clip-rule="evenodd" d="M7.81395 8.65147C7.81395 6.33958 9.68811 4.46542 12 4.46542C14.3119 4.46542 16.186 6.33958 16.186 8.65147C16.186 10.9634 14.3119 12.8375 12 12.8375C9.68811 12.8375 7.81395 10.9634 7.81395 8.65147ZM12 6.13984C10.6129 6.13984 9.48837 7.26433 9.48837 8.65147C9.48837 10.0386 10.6129 11.1631 12 11.1631C13.3871 11.1631 14.5116 10.0386 14.5116 8.65147C14.5116 7.26433 13.3871 6.13984 12 6.13984Z" fill="#777777"/>
<path fill-rule="evenodd" clip-rule="evenodd" d="M0 12.0003C0 5.37289 5.37258 0.000305176 12 0.000305176C18.6274 0.000305176 24 5.37289 24 12.0003C24 18.6277 18.6274 24.0003 12 24.0003C5.37258 24.0003 0 18.6277 0 12.0003ZM12 1.67472C6.29734 1.67472 1.67442 6.29764 1.67442 12.0003C1.67442 14.8419 2.82225 17.4154 4.67956 19.2824C4.88093 18.1961 5.27659 17.1719 6.07074 16.3483C7.25863 15.1164 9.15814 14.5119 11.9999 14.5119C14.8418 14.5119 16.7413 15.1164 17.9292 16.3483C18.7233 17.1719 19.119 18.1962 19.3203 19.2825C21.1777 17.4155 22.3256 14.8419 22.3256 12.0003C22.3256 6.29764 17.7027 1.67472 12 1.67472ZM17.7976 20.5459C17.6839 19.193 17.3901 18.2016 16.7238 17.5106C15.9988 16.7587 14.6555 16.1864 11.9999 16.1864C9.34437 16.1864 8.00106 16.7587 7.27607 17.5106C6.60979 18.2016 6.31603 19.193 6.2023 20.5458C7.85508 21.6693 9.85086 22.3259 12 22.3259C14.1491 22.3259 16.1448 21.6693 17.7976 20.5459Z" fill="#777777"/>
</svg>
